<?xml version="1.0" encoding="UTF-8" standalone="no"?>
<!-- Created with Inkscape (http://www.inkscape.org/) -->

<svg
   width="36"
   height="36"
   viewBox="0 0 9.5250002 9.5249999"
   version="1.1"
   id="svg1256"
   inkscape:export-filename="..\images\ui\pin_open.png"
   inkscape:export-xdpi="136.69614"
   inkscape:export-ydpi="136.69614"
   inkscape:version="1.2.1 (9c6d41e410, 2022-07-14)"
   sodipodi:docname="icons.svg"
   xmlns:inkscape="http://www.inkscape.org/namespaces/inkscape"
   xmlns:sodipodi="http://sodipodi.sourceforge.net/DTD/sodipodi-0.dtd"
   xmlns="http://www.w3.org/2000/svg"
   xmlns:svg="http://www.w3.org/2000/svg">
  <sodipodi:namedview
     id="namedview1258"
     pagecolor="#505050"
     bordercolor="#ffffff"
     borderopacity="1"
     inkscape:showpageshadow="0"
     inkscape:pageopacity="0"
     inkscape:pagecheckerboard="1"
     inkscape:deskcolor="#505050"
     inkscape:document-units="mm"
     showgrid="false"
     inkscape:zoom="45.254834"
     inkscape:cx="10.451922"
     inkscape:cy="18.318485"
     inkscape:window-width="1920"
     inkscape:window-height="1009"
     inkscape:window-x="1912"
     inkscape:window-y="-8"
     inkscape:window-maximized="1"
     inkscape:current-layer="layer1" />
  <defs
     id="defs1253">
    <inkscape:path-effect
       effect="fillet_chamfer"
       id="path-effect1815"
       is_visible="true"
       lpeversion="1"
       nodesatellites_param="F,0,0,1,0,0.56243676,0,1 @ F,0,0,1,0,0,0,1 @ F,0,0,1,0,0.55703895,0,1 @ F,0,0,1,0,0,0,1 @ F,0,0,1,0,0.69459025,0,1 @ F,0,0,1,0,0,0,1 @ F,0,0,1,0,0.6519044,0,1 @ F,0,0,1,0,0,0,1 @ F,0,0,1,0,0.60738422,0,1 @ F,0,0,1,0,0,0,1"
       unit="px"
       method="auto"
       mode="F"
       radius="0"
       chamfer_steps="1"
       flexible="false"
       use_knot_distance="true"
       apply_no_radius="true"
       apply_with_radius="true"
       only_selected="false"
       hide_knots="false" />
  </defs>
  <g
     inkscape:label="Layer 1"
     inkscape:groupmode="layer"
     id="layer1">
    <path
       id="rect1696"
       style="display:none;fill:#ff5555;stroke-width:0.083;stroke-dasharray:none"
       d="m 3.9758069,4.4823935 c -0.013437,0 -0.026821,0.00512 -0.037117,0.015413 L 3.8213622,4.6151343 c -0.020593,0.020593 -0.020593,0.053641 0,0.074234 l 0.7058533,0.706168 -0.7058534,0.7058534 c -0.020593,0.020593 -0.020593,0.053641 0,0.074234 l 0.1173277,0.1176422 c 0.020593,0.020593 0.053956,0.020593 0.074549,0 L 4.7190922,5.5874125 5.4249456,6.2932658 c 0.020593,0.020593 0.053956,0.020593 0.074549,2e-7 L 5.6168221,6.1756238 c 0.020593,-0.020593 0.020593,-0.053642 10e-8,-0.074234 L 4.9109685,5.395536 5.6168217,4.6893684 c 0.020593,-0.020593 0.020593,-0.053641 0,-0.074234 L 5.499494,4.4978067 c -0.020593,-0.020593 -0.053956,-0.020593 -0.074549,0 L 4.7190919,5.2036598 4.0132386,4.4978066 C 4.0029423,4.4875103 3.989244,4.4823935 3.9758069,4.4823935 Z"
       inkscape:label="close" />
    <path
       sodipodi:type="star"
       style="display:none;fill:#f2f2f2;fill-opacity:1;stroke:#f2f2f2;stroke-width:0.1"
       id="path1694"
       inkscape:flatsided="false"
       sodipodi:sides="5"
       sodipodi:cx="2.978832"
       sodipodi:cy="3.0592449"
       sodipodi:r1="3.7888997"
       sodipodi:r2="1.3838484"
       sodipodi:arg1="0.83752249"
       sodipodi:arg2="1.465841"
       inkscape:rounded="0"
       inkscape:randomized="0"
       inkscape:transform-center-x="-0.045462508"
       inkscape:transform-center-y="-0.12316205"
       transform="matrix(0.35764443,0.03392218,-0.03392218,0.35764443,3.5943294,4.2273047)"
       d="M 5.0328609,5.5843409 3.1238078,4.4354783 1.4921071,5.9606029 A 0.16974165,0.16974165 29.986504 0 1 1.2108349,5.7982986 L 1.7147562,3.6224045 -0.1195644,2.6084011 A 0.21165647,0.21165647 101.9865 0 1 -0.03546796,2.2122997 L 2.0526144,2.0310632 2.458249,-0.06873461 A 0.19864918,0.19864918 173.9865 0 1 2.8362031,-0.10854919 L 3.6704739,1.860634 5.8370303,1.5920654 a 0.18508293,0.18508293 65.986504 0 1 0.144098,0.3234444 L 4.3325078,3.3466443 5.2764773,5.3648838 A 0.17138648,0.17138648 137.9865 0 1 5.0328609,5.5843409 Z"
       inkscape:path-effect="#path-effect1815"
       inkscape:label="start" />
    <path
       id="rect1869"
       style="display:none;fill:#f2f2f2;fill-opacity:1;stroke:#f2f2f2;stroke-width:0.0852947"
       d="m 4.4369385,2.5398966 c -0.082219,0.00414 -0.1472779,0.071746 -0.1472779,0.1550293 V 4.0943237 L 4.1248128,3.9806356 C 4.0150544,3.9049177 3.8656674,3.9318553 3.7899495,4.0416138 3.7142317,4.1513722 3.741686,4.3007592 3.8514445,4.3764771 l 0.4650879,0.3214274 c 0.060816,0.041954 0.134131,0.051939 0.1999878,0.034106 0.073935,0.018835 0.1554521,0.00196 0.2175578,-0.052193 L 5.1604085,4.3082642 C 5.2609129,4.2206344 5.2712927,4.0692544 5.1836629,3.96875 5.0960332,3.8682456 4.9446532,3.8578658 4.8441488,3.9454956 l -0.097669,0.085266 V 2.6949259 c 0,-0.08597 -0.069059,-0.1550293 -0.1550293,-0.1550293 H 4.4452067 c -0.00269,0 -0.00562,-1.335e-4 -0.00827,0 z M 3.1098877,4.2596883 c -0.082219,0.00414 -0.1472778,0.071746 -0.1472778,0.1550293 v 1.8779216 c 0,0.08597 0.069059,0.1550293 0.1550293,0.1550293 h 0.146761 c 0.016691,0 0.032499,-0.0024 0.047542,-0.00723 h 2.4184571 c 0.015043,0.00483 0.030851,0.00723 0.047542,0.00723 h 0.1462443 c 0.08597,0 0.1550293,-0.069059 0.1550293,-0.1550293 V 4.4147176 c 0,-0.08597 -0.069059,-0.1550293 -0.1550293,-0.1550293 H 5.7779419 c -0.08597,0 -0.1550293,0.069059 -0.1550293,0.1550293 V 5.9986003 H 3.4194295 V 4.4147176 c 0,-0.08597 -0.069059,-0.1550293 -0.1550293,-0.1550293 h -0.146761 c -0.00269,0 -0.0051,-1.336e-4 -0.00775,0 z"
       inkscape:label="dl" />
    <circle
       style="fill:none;fill-opacity:1;stroke:#ff9955;stroke-width:0.256;stroke-dasharray:none"
       id="path2744"
       cx="4.7190919"
       cy="5.3955364"
       r="0.89715624" />
  </g>
</svg>
